<?xml version="1.0" standalone="no"?>
<!DOCTYPE svg PUBLIC "-//W3C//DTD SVG 20010904//EN"
 "http://www.w3.org/TR/2001/REC-SVG-20010904/DTD/svg10.dtd">
<svg version="1.0" xmlns="http://www.w3.org/2000/svg"
 width="729.000000pt" height="729.000000pt" viewBox="0 0 729.000000 729.000000"
 preserveAspectRatio="xMidYMid meet">
<metadata>
Created by potrace 1.11, written by Peter Selinger 2001-2013
</metadata>
<g transform="translate(0.000000,729.000000) scale(0.100000,-0.100000)"
fill="#000000" stroke="none">
<path d="M3428 7245 c-1 -1 -39 -6 -83 -9 -44 -4 -91 -9 -105 -11 -14 -2 -47
-7 -74 -10 -42 -5 -134 -20 -241 -40 -201 -38 -552 -149 -745 -237 -111 -51
-195 -92 -200 -97 -3 -3 -27 -17 -55 -31 -99 -49 -370 -218 -407 -253 -7 -7
-26 -21 -43 -31 -32 -20 -160 -124 -235 -190 -486 -428 -844 -961 -1052 -1566
-28 -83 -116 -410 -123 -460 -5 -34 -16 -98 -21 -124 -2 -11 -7 -46 -10 -76
-3 -30 -7 -61 -10 -68 -26 -81 -25 -654 2 -837 21 -149 37 -244 54 -320 11
-49 23 -101 26 -115 55 -257 225 -671 381 -933 212 -355 505 -702 783 -927 24
-19 48 -40 54 -45 6 -6 31 -26 56 -45 25 -19 50 -38 55 -43 6 -4 52 -38 104
-74 432 -303 970 -522 1481 -603 36 -5 76 -12 90 -14 14 -3 50 -8 80 -11 30
-3 69 -8 85 -11 56 -8 570 -12 635 -4 36 5 95 11 132 15 37 3 77 8 90 10 48 8
214 36 238 40 120 21 561 154 585 176 5 5 15 9 22 9 7 0 38 12 70 26 32 14 74
32 93 41 69 31 273 134 311 158 21 14 41 25 44 25 7 0 229 145 278 183 24 17
56 41 71 52 16 11 33 25 40 30 6 6 43 36 81 67 154 124 352 320 491 488 240
290 441 627 574 959 73 185 150 429 175 561 2 12 6 29 9 38 3 9 7 31 10 47 2
17 12 74 21 128 32 193 40 313 39 572 0 200 -6 328 -19 410 -3 17 -7 47 -10
68 -11 83 -17 118 -31 185 -3 15 -8 40 -11 57 -2 16 -18 79 -34 140 -17 60
-32 117 -34 126 -12 53 -82 256 -119 344 -42 100 -55 128 -118 252 -278 551
-695 1021 -1213 1367 -117 79 -280 176 -294 176 -5 0 -14 7 -21 15 -6 8 -15
14 -18 13 -4 -1 -63 26 -132 59 -224 108 -553 224 -735 259 -11 2 -33 7 -50
11 -16 4 -33 6 -37 5 -4 -1 -18 2 -30 7 -13 5 -43 12 -68 15 -25 3 -58 9 -75
12 -16 2 -41 7 -55 9 -14 3 -54 7 -90 11 -36 3 -76 8 -90 11 -27 5 -566 13
-572 8z"/>
</g>
</svg>
